<?xml version="1.0" standalone="no"?>
<!DOCTYPE svg PUBLIC "-//W3C//DTD SVG 20010904//EN"
 "http://www.w3.org/TR/2001/REC-SVG-20010904/DTD/svg10.dtd">
<svg version="1.0" xmlns="http://www.w3.org/2000/svg"
 width="500.000000pt" height="500.000000pt" viewBox="0 0 500.000000 500.000000"
 preserveAspectRatio="xMidYMid meet">
<metadata>
Created by potrace 1.11, written by Peter Selinger 2001-2013
</metadata>
<g transform="translate(0.000000,500.000000) scale(0.100000,-0.100000)"
fill="#000000" stroke="none">
<path d="M2236 4619 c-312 -40 -644 -164 -907 -337 -524 -345 -871 -906 -949
-1532 -13 -109 -13 -391 0 -500 78 -626 425 -1187 949 -1532 269 -177 597
-297 921 -338 109 -13 391 -13 500 0 324 41 652 161 921 338 524 345 871 906
949 1532 13 109 13 391 0 500 -78 626 -425 1187 -949 1532 -269 177 -597 297
-921 338 -99 12 -415 11 -514 -1z m1268 -1588 c251 -508 453 -928 449 -932 -4
-4 -43 -24 -86 -43 l-78 -36 -419 845 -419 845 39 115 c37 111 49 140 55 133
1 -2 208 -419 459 -927z m-855 -778 l-393 -1135 -43 154 c-23 84 -43 161 -43
170 0 9 36 122 81 250 260 748 669 1931 670 1937 0 3 28 -50 61 -118 l60 -123
-393 -1135z m-615 400 l213 -780 -48 -142 c-26 -78 -52 -148 -57 -156 -5 -10
-63 188 -170 577 -89 326 -193 704 -231 841 l-68 247 70 100 c39 55 72 98 74
96 2 -1 99 -354 217 -783z m-374 399 c30 -110 31 -114 14 -140 -26 -39 -455
-645 -465 -656 -7 -8 -64 26 -138 83 l-24 19 288 406 c158 224 289 405 291
404 1 -2 17 -54 34 -116z"/>
</g>
</svg>
